<mxfile host="app.diagrams.net" modified="2023-01-31T07:25:43.354Z" agent="5.0 (Macintosh; Intel Mac OS X 10_15_7) AppleWebKit/537.36 (KHTML, like Gecko) Chrome/109.0.0.0 Safari/537.36" version="20.6.2" etag="KAwjX5F338HCTIE2bUF3" type="github">
  <diagram id="D69A_Xws2HxqnfPcJXEb" name="第 1 页">
    <mxGraphModel dx="992" dy="692" grid="1" gridSize="10" guides="1" tooltips="1" connect="1" arrows="1" fold="1" page="1" pageScale="1" pageWidth="827" pageHeight="1169" math="0" shadow="0">
      <root>
        <mxCell id="0" />
        <mxCell id="1" parent="0" />
        <mxCell id="xoA43_HMkK5NfcKvHMA0-1" value="" style="rounded=0;whiteSpace=wrap;html=1;" vertex="1" parent="1">
          <mxGeometry x="280" y="270" width="120" height="120" as="geometry" />
        </mxCell>
        <mxCell id="xoA43_HMkK5NfcKvHMA0-2" value="" style="rounded=0;whiteSpace=wrap;html=1;dashed=1;" vertex="1" parent="1">
          <mxGeometry x="280" y="300" width="120" height="60" as="geometry" />
        </mxCell>
        <mxCell id="xoA43_HMkK5NfcKvHMA0-4" value="" style="rounded=0;whiteSpace=wrap;html=1;dashed=1;" vertex="1" parent="1">
          <mxGeometry x="202.5" y="450" width="275" height="120" as="geometry" />
        </mxCell>
        <mxCell id="xoA43_HMkK5NfcKvHMA0-3" value="" style="rounded=0;whiteSpace=wrap;html=1;" vertex="1" parent="1">
          <mxGeometry x="280" y="450" width="120" height="120" as="geometry" />
        </mxCell>
      </root>
    </mxGraphModel>
  </diagram>
</mxfile>
